<?xml version="1.0" encoding="UTF-8"?><svg id="Layer_2" xmlns="http://www.w3.org/2000/svg" viewBox="0 0 305.09 73.8"><defs><style>.cls-1{fill:#222;}</style></defs><g id="Layer_1-2"><path class="cls-1" d="m87.29,17.18h7.63c3.75,0,6.56,2.4,6.56,5.82s-2.81,5.82-6.56,5.82h-4.44v5.89h-3.19v-17.53Zm7.27,8.7c2.17,0,3.67-1.1,3.67-2.88s-1.51-2.88-3.67-2.88h-4.08v5.77h4.08Z"/><path class="cls-1" d="m105.86,25.93c0-4.92,4.21-9.06,9.21-9.06s9.19,4.13,9.19,9.06-4.21,9.08-9.19,9.08-9.21-4.16-9.21-9.08Zm15.13,0c0-3.34-2.7-6.15-5.92-6.15s-5.97,2.81-5.97,6.15,2.73,6.17,5.97,6.17,5.92-2.81,5.92-6.17Z"/><path class="cls-1" d="m141.76,31.8v2.91h-12.17v-17.53h3.16v14.62h9.01Z"/><path class="cls-1" d="m158.9,31.8v2.91h-12.17v-17.53h3.16v14.62h9.01Z"/><path class="cls-1" d="m164.08,17.18h3.16v17.53h-3.16v-17.53Z"/><path class="cls-1" d="m173.7,17.18h3.19l9.26,12.32v-12.32h3.16v17.53h-3.16l-9.26-12.32v12.32h-3.19v-17.53Z"/><path class="cls-1" d="m207.73,31.54h-8.47l-1.33,3.16h-3.55l7.32-17.53h3.55l7.32,17.53h-3.52l-1.33-3.16Zm-1.15-2.76l-3.09-7.37-3.09,7.37h6.17Z"/><path class="cls-1" d="m220.54,20.09h-5.61v-2.91h14.39v2.91h-5.61v14.62h-3.16v-14.62Z"/><path class="cls-1" d="m234.65,17.18h3.16v17.53h-3.16v-17.53Z"/><path class="cls-1" d="m243.38,25.93c0-4.92,4.21-9.06,9.21-9.06s9.19,4.13,9.19,9.06-4.21,9.08-9.19,9.08-9.21-4.16-9.21-9.08Zm15.13,0c0-3.34-2.7-6.15-5.92-6.15s-5.97,2.81-5.97,6.15,2.73,6.17,5.97,6.17,5.92-2.81,5.92-6.17Z"/><path class="cls-1" d="m267.48,17.18h3.19l9.26,12.32v-12.32h3.16v17.53h-3.16l-9.26-12.32v12.32h-3.19v-17.53Z"/><path class="cls-1" d="m298.59,25.93l6.51,8.78h-3.78l-4.62-6.23-4.64,6.23h-3.75l6.51-8.75-6.51-8.78h3.8l4.62,6.23,4.64-6.23h3.72l-6.51,8.75Z"/><path class="cls-1" d="m87.29,45.12h2.28c2.14,0,3.65,1.34,3.65,3.23s-1.51,3.24-3.65,3.24h-2.28v-6.47Zm2.4,5.41c1.37,0,2.33-.91,2.33-2.18s-.96-2.17-2.33-2.17h-1.22v4.34h1.22Z"/><path class="cls-1" d="m96.49,46.2v1.56h3.35v1.07h-3.35v1.69h3.69v1.08h-4.87v-6.47h4.87v1.08h-3.69Z"/><path class="cls-1" d="m102.02,48.36c0-1.82,1.55-3.34,3.4-3.34.95,0,1.82.4,2.44,1.05l-.84.78c-.4-.46-.98-.75-1.6-.75-1.2,0-2.21,1.04-2.21,2.27s1.01,2.28,2.21,2.28c.63,0,1.21-.29,1.61-.75l.83.77c-.62.65-1.49,1.06-2.44,1.06-1.85,0-3.4-1.54-3.4-3.36Z"/><path class="cls-1" d="m110.88,46.2v1.56h3.35v1.07h-3.35v1.69h3.69v1.08h-4.87v-6.47h4.87v1.08h-3.69Z"/><path class="cls-1" d="m116.74,45.12h1.18l3.42,4.55v-4.55h1.17v6.47h-1.17l-3.42-4.55v4.55h-1.18v-6.47Z"/><path class="cls-1" d="m126.61,46.2h-2.07v-1.08h5.31v1.08h-2.07v5.4h-1.17v-5.4Z"/><path class="cls-1" d="m135.76,51.6l-1.53-2.18h-1.25v2.18h-1.18v-6.47h2.82c1.39,0,2.42.89,2.42,2.15,0,.98-.63,1.73-1.56,2.03l1.62,2.3h-1.34Zm-2.78-3.26h1.51c.8,0,1.36-.41,1.36-1.06s-.56-1.06-1.36-1.06h-1.51v2.13Z"/><path class="cls-1" d="m143.49,50.43h-3.13l-.49,1.17h-1.31l2.7-6.47h1.31l2.7,6.47h-1.3l-.49-1.17Zm-.42-1.02l-1.14-2.72-1.14,2.72h2.28Z"/><path class="cls-1" d="m151.52,50.52v1.08h-4.49v-6.47h1.17v5.4h3.33Z"/><path class="cls-1" d="m153.44,45.12h1.17v6.47h-1.17v-6.47Z"/><path class="cls-1" d="m156.72,50.7l3.57-4.5h-3.5v-1.08h5.11v.89l-3.56,4.5h3.61v1.08h-5.22v-.89Z"/><path class="cls-1" d="m165.18,46.2v1.56h3.35v1.07h-3.35v1.69h3.69v1.08h-4.87v-6.47h4.87v1.08h-3.69Z"/><path class="cls-1" d="m171.03,45.12h2.28c2.14,0,3.65,1.34,3.65,3.23s-1.51,3.24-3.65,3.24h-2.28v-6.47Zm2.4,5.41c1.37,0,2.33-.91,2.33-2.18s-.96-2.17-2.33-2.17h-1.22v4.34h1.22Z"/><path class="cls-1" d="m182.29,50.66l.68-.84c.59.54,1.28.88,2.13.88.8,0,1.22-.4,1.22-.86,0-.54-.46-.72-1.5-.96-1.34-.31-2.27-.7-2.27-1.91,0-1.13.96-1.96,2.33-1.96,1.03,0,1.8.35,2.45.9l-.64.87c-.57-.49-1.22-.76-1.86-.76s-1.09.4-1.09.85c0,.53.48.72,1.51.95,1.35.3,2.25.74,2.25,1.91s-.89,1.98-2.43,1.98c-1.11,0-2.05-.38-2.77-1.05Z"/><path class="cls-1" d="m191.26,46.2h-2.07v-1.08h5.31v1.08h-2.07v5.4h-1.17v-5.4Z"/><path class="cls-1" d="m195.86,48.36c0-1.82,1.55-3.34,3.4-3.34s3.39,1.53,3.39,3.34-1.55,3.36-3.39,3.36-3.4-1.54-3.4-3.36Zm5.59,0c0-1.23-1-2.27-2.19-2.27s-2.21,1.04-2.21,2.27,1.01,2.28,2.21,2.28,2.19-1.04,2.19-2.28Z"/><path class="cls-1" d="m208.63,51.6l-1.53-2.18h-1.25v2.18h-1.18v-6.47h2.82c1.39,0,2.42.89,2.42,2.15,0,.98-.63,1.73-1.56,2.03l1.62,2.3h-1.34Zm-2.78-3.26h1.51c.8,0,1.36-.41,1.36-1.06s-.56-1.06-1.36-1.06h-1.51v2.13Z"/><path class="cls-1" d="m216.36,50.43h-3.13l-.49,1.17h-1.31l2.7-6.47h1.31l2.7,6.47h-1.3l-.49-1.17Zm-.42-1.02l-1.14-2.72-1.14,2.72h2.28Z"/><path class="cls-1" d="m222.78,48.04h2.76v2.62c-.62.65-1.63,1.06-2.57,1.06-1.86,0-3.42-1.54-3.42-3.36s1.56-3.34,3.42-3.34c.94,0,1.95.4,2.57,1.05l-.84.78c-.4-.47-1.1-.75-1.73-.75-1.21,0-2.22,1.04-2.22,2.27s1.02,2.28,2.22,2.28c.49,0,1.02-.17,1.42-.46v-1.18h-1.61v-.96Z"/><path class="cls-1" d="m228.92,46.2v1.56h3.34v1.07h-3.34v1.69h3.69v1.08h-4.87v-6.47h4.87v1.08h-3.69Z"/><path class="cls-1" d="m238.05,48.36c0-1.82,1.55-3.34,3.4-3.34s3.39,1.53,3.39,3.34-1.55,3.36-3.39,3.36-3.4-1.54-3.4-3.36Zm5.59,0c0-1.23-1-2.27-2.19-2.27s-2.2,1.04-2.2,2.27,1.01,2.28,2.2,2.28,2.19-1.04,2.19-2.28Z"/><path class="cls-1" d="m246.96,45.12h1.18l3.42,4.55v-4.55h1.17v6.47h-1.17l-3.42-4.55v4.55h-1.18v-6.47Z"/><path class="cls-1" d="m258.78,45.12h2.28c2.14,0,3.65,1.34,3.65,3.23s-1.51,3.24-3.65,3.24h-2.28v-6.47Zm2.4,5.41c1.37,0,2.33-.91,2.33-2.18s-.96-2.17-2.33-2.17h-1.23v4.34h1.23Z"/><path class="cls-1" d="m267.99,46.2v1.56h3.34v1.07h-3.34v1.69h3.69v1.08h-4.87v-6.47h4.87v1.08h-3.69Z"/><path class="cls-1" d="m273.84,45.12h1.18l2.13,3.95,2.14-3.95h1.17v6.47h-1.17v-4.33l-2.14,3.95-2.13-3.95v4.33h-1.18v-6.47Z"/><path class="cls-1" d="m287.27,50.43h-3.13l-.49,1.17h-1.31l2.7-6.47h1.31l2.7,6.47h-1.3l-.49-1.17Zm-.42-1.02l-1.14-2.72-1.14,2.72h2.28Z"/><path class="cls-1" d="m290.95,45.12h1.18l3.42,4.55v-4.55h1.17v6.47h-1.17l-3.42-4.55v4.55h-1.18v-6.47Z"/><path class="cls-1" d="m299.17,45.12h2.28c2.14,0,3.65,1.34,3.65,3.23s-1.51,3.24-3.65,3.24h-2.28v-6.47Zm2.4,5.41c1.37,0,2.33-.91,2.33-2.18s-.96-2.17-2.33-2.17h-1.23v4.34h1.23Z"/><path class="cls-1" d="m29.68,0L0,17.16v34.47l27.22,15.71,2.17,6.46h.63l2.13-6.47,27.18-15.7V17.16L29.68,0Zm12.21,57.59l-12.21,7.05-12.24-7.06v-6.8s12.24,7.06,12.24,7.06l12.24-7.06-.02,6.81Zm-12.21-3.87l-12.24-7.06v-6.8s12.24,7.06,12.24,7.06l12.21-7.05.02,6.79-12.24,7.06Zm12.21-17.97l-12.21,7.05-12.24-7.06v-6.8l12.24,7.06,12.21-7.05v6.8Zm-12.21-3.87l-10.29-5.94,10.29-5.94,10.29,5.94-10.29,5.94Zm-3.82-13.79l-10.19,5.88-10.2-5.89,10.19-5.88,10.2,5.89Zm17.82,5.88l-10.18-5.88,10.18-5.88,10.18,5.88-10.18,5.88Zm-3.62-13.82l-10.38,5.99-10.38-5.99,10.38-5.99,10.38,5.99ZM3.54,21.05l10.34,5.97v6.7l-10.34-5.97v-6.7Zm0,10.78l10.34,5.97v6.82l-10.34-5.97v-6.82Zm0,10.91l10.34,5.97v6.83l-10.34-5.97v-6.83Zm52.26,6.83l-10.32,5.96v-6.83h0s10.32-5.97,10.32-5.97v6.83Zm0-10.92l-10.32,5.96v-6.82l10.32-5.96v6.82Zm-10.32-4.95v-6.7l10.32-5.96v6.7l-10.32,5.96Z"/></g></svg>