<?xml version="1.0" encoding="UTF-8"?><svg id="Layer_2" xmlns="http://www.w3.org/2000/svg" viewBox="0 0 204.89 139"><defs><style>.cls-1{fill:#fff;}</style></defs><g id="Layer_1-2"><path class="cls-1" d="m0,107.78h7.18c3.53,0,6.17,2.26,6.17,5.47s-2.64,5.47-6.17,5.47H3v5.54H0v-16.49Zm6.84,8.18c2.04,0,3.46-1.03,3.46-2.71s-1.42-2.71-3.46-2.71h-3.84v5.42h3.84Z"/><path class="cls-1" d="m17.47,116.01c0-4.63,3.96-8.52,8.66-8.52s8.64,3.89,8.64,8.52-3.96,8.54-8.64,8.54-8.66-3.91-8.66-8.54Zm14.23,0c0-3.14-2.54-5.78-5.57-5.78s-5.62,2.64-5.62,5.78,2.57,5.81,5.62,5.81,5.57-2.64,5.57-5.81Z"/><path class="cls-1" d="m51.24,121.53v2.74h-11.45v-16.49h2.98v13.75h8.47Z"/><path class="cls-1" d="m67.37,121.53v2.74h-11.45v-16.49h2.98v13.75h8.47Z"/><path class="cls-1" d="m72.24,107.78h2.98v16.49h-2.98v-16.49Z"/><path class="cls-1" d="m81.29,107.78h3l8.71,11.59v-11.59h2.98v16.49h-2.98l-8.71-11.59v11.59h-3v-16.49Z"/><path class="cls-1" d="m113.3,121.29h-7.97l-1.25,2.98h-3.34l6.89-16.49h3.34l6.89,16.49h-3.31l-1.25-2.98Zm-1.08-2.59l-2.9-6.94-2.9,6.94h5.81Z"/><path class="cls-1" d="m125.35,110.51h-5.28v-2.74h13.54v2.74h-5.28v13.75h-2.98v-13.75Z"/><path class="cls-1" d="m138.62,107.78h2.98v16.49h-2.98v-16.49Z"/><path class="cls-1" d="m146.83,116.01c0-4.63,3.96-8.52,8.67-8.52s8.64,3.89,8.64,8.52-3.96,8.54-8.64,8.54-8.67-3.91-8.67-8.54Zm14.23,0c0-3.14-2.54-5.78-5.57-5.78s-5.62,2.64-5.62,5.78,2.57,5.81,5.62,5.81,5.57-2.64,5.57-5.81Z"/><path class="cls-1" d="m169.51,107.78h3l8.71,11.59v-11.59h2.98v16.49h-2.98l-8.71-11.59v11.59h-3v-16.49Z"/><path class="cls-1" d="m198.77,116.01l6.12,8.26h-3.55l-4.34-5.86-4.37,5.86h-3.53l6.12-8.23-6.12-8.26h3.58l4.34,5.86,4.37-5.86h3.5l-6.12,8.23Z"/><path class="cls-1" d="m20.44,134.04h1.72c1.61,0,2.75,1.01,2.75,2.43s-1.14,2.44-2.75,2.44h-1.72v-4.88Zm1.81,4.07c1.03,0,1.75-.68,1.75-1.64s-.72-1.63-1.75-1.63h-.92v3.27h.92Z"/><path class="cls-1" d="m27.37,134.85v1.18h2.52v.81h-2.52v1.27h2.78v.81h-3.67v-4.88h3.67v.81h-2.78Z"/><path class="cls-1" d="m31.53,136.48c0-1.37,1.17-2.52,2.56-2.52.72,0,1.37.3,1.84.79l-.63.59c-.3-.35-.74-.57-1.21-.57-.9,0-1.66.78-1.66,1.71s.76,1.72,1.66,1.72c.48,0,.91-.22,1.21-.57l.62.58c-.47.49-1.12.79-1.84.79-1.39,0-2.56-1.16-2.56-2.53Z"/><path class="cls-1" d="m38.21,134.85v1.18h2.52v.81h-2.52v1.27h2.78v.81h-3.67v-4.88h3.67v.81h-2.78Z"/><path class="cls-1" d="m42.62,134.04h.89l2.58,3.43v-3.43h.88v4.88h-.88l-2.58-3.43v3.43h-.89v-4.88Z"/><path class="cls-1" d="m50.05,134.85h-1.56v-.81h4v.81h-1.56v4.07h-.88v-4.07Z"/><path class="cls-1" d="m56.94,138.92l-1.15-1.64h-.94v1.64h-.89v-4.88h2.12c1.04,0,1.82.67,1.82,1.62,0,.74-.48,1.31-1.18,1.53l1.22,1.73h-1.01Zm-2.09-2.46h1.14c.6,0,1.02-.31,1.02-.8s-.42-.8-1.02-.8h-1.14v1.6Z"/><path class="cls-1" d="m62.76,138.04h-2.36l-.37.88h-.99l2.04-4.88h.99l2.04,4.88h-.98l-.37-.88Zm-.32-.77l-.86-2.05-.86,2.05h1.72Z"/><path class="cls-1" d="m68.81,138.11v.81h-3.38v-4.88h.88v4.07h2.5Z"/><path class="cls-1" d="m70.25,134.04h.88v4.88h-.88v-4.88Z"/><path class="cls-1" d="m72.72,138.24l2.69-3.39h-2.64v-.81h3.85v.67l-2.68,3.39h2.72v.81h-3.93v-.67Z"/><path class="cls-1" d="m79.09,134.85v1.18h2.52v.81h-2.52v1.27h2.78v.81h-3.67v-4.88h3.67v.81h-2.78Z"/><path class="cls-1" d="m83.5,134.04h1.72c1.61,0,2.75,1.01,2.75,2.43s-1.14,2.44-2.75,2.44h-1.72v-4.88Zm1.81,4.07c1.03,0,1.75-.68,1.75-1.64s-.72-1.63-1.75-1.63h-.92v3.27h.92Z"/><path class="cls-1" d="m91.98,138.21l.51-.63c.45.4.96.66,1.6.66.6,0,.92-.3.92-.65,0-.4-.35-.54-1.13-.72-1.01-.23-1.71-.53-1.71-1.44,0-.85.72-1.48,1.75-1.48.77,0,1.35.26,1.84.68l-.48.65c-.43-.37-.92-.58-1.4-.58s-.82.3-.82.64c0,.4.36.54,1.14.72,1.01.23,1.7.55,1.7,1.44s-.67,1.49-1.83,1.49c-.84,0-1.55-.28-2.09-.79Z"/><path class="cls-1" d="m98.73,134.85h-1.56v-.81h4v.81h-1.56v4.07h-.88v-4.07Z"/><path class="cls-1" d="m102.19,136.48c0-1.37,1.17-2.52,2.56-2.52s2.55,1.15,2.55,2.52-1.17,2.53-2.55,2.53-2.56-1.16-2.56-2.53Zm4.21,0c0-.93-.75-1.71-1.65-1.71s-1.66.78-1.66,1.71.76,1.72,1.66,1.72,1.65-.78,1.65-1.72Z"/><path class="cls-1" d="m111.81,138.92l-1.15-1.64h-.94v1.64h-.89v-4.88h2.12c1.04,0,1.82.67,1.82,1.62,0,.74-.48,1.31-1.18,1.53l1.22,1.73h-1.01Zm-2.09-2.46h1.14c.6,0,1.02-.31,1.02-.8s-.42-.8-1.02-.8h-1.14v1.6Z"/><path class="cls-1" d="m117.63,138.04h-2.36l-.37.88h-.99l2.04-4.88h.99l2.04,4.88h-.98l-.37-.88Zm-.32-.77l-.86-2.05-.86,2.05h1.72Z"/><path class="cls-1" d="m122.47,136.24h2.08v1.97c-.47.49-1.23.79-1.94.79-1.4,0-2.58-1.16-2.58-2.53s1.18-2.52,2.58-2.52c.71,0,1.47.3,1.94.79l-.63.59c-.3-.36-.83-.57-1.31-.57-.91,0-1.67.78-1.67,1.71s.77,1.72,1.67,1.72c.37,0,.77-.13,1.07-.35v-.89h-1.21v-.72Z"/><path class="cls-1" d="m127.09,134.85v1.18h2.52v.81h-2.52v1.27h2.78v.81h-3.67v-4.88h3.67v.81h-2.78Z"/><path class="cls-1" d="m133.96,136.48c0-1.37,1.17-2.52,2.56-2.52s2.55,1.15,2.55,2.52-1.17,2.53-2.55,2.53-2.56-1.16-2.56-2.53Zm4.21,0c0-.93-.75-1.71-1.65-1.71s-1.66.78-1.66,1.71.76,1.72,1.66,1.72,1.65-.78,1.65-1.72Z"/><path class="cls-1" d="m140.67,134.04h.89l2.58,3.43v-3.43h.88v4.88h-.88l-2.58-3.43v3.43h-.89v-4.88Z"/><path class="cls-1" d="m149.58,134.04h1.72c1.61,0,2.75,1.01,2.75,2.43s-1.13,2.44-2.75,2.44h-1.72v-4.88Zm1.81,4.07c1.03,0,1.75-.68,1.75-1.64s-.72-1.63-1.75-1.63h-.92v3.27h.92Z"/><path class="cls-1" d="m156.51,134.85v1.18h2.52v.81h-2.52v1.27h2.78v.81h-3.67v-4.88h3.67v.81h-2.78Z"/><path class="cls-1" d="m160.92,134.04h.89l1.6,2.97,1.61-2.97h.88v4.88h-.88v-3.26l-1.61,2.97-1.6-2.97v3.26h-.89v-4.88Z"/><path class="cls-1" d="m171.03,138.04h-2.36l-.37.88h-.99l2.04-4.88h.99l2.04,4.88h-.98l-.37-.88Zm-.32-.77l-.86-2.05-.86,2.05h1.72Z"/><path class="cls-1" d="m173.8,134.04h.89l2.58,3.43v-3.43h.88v4.88h-.88l-2.58-3.43v3.43h-.89v-4.88Z"/><path class="cls-1" d="m179.98,134.04h1.72c1.61,0,2.75,1.01,2.75,2.43s-1.13,2.44-2.75,2.44h-1.72v-4.88Zm1.81,4.07c1.03,0,1.75-.68,1.75-1.64s-.72-1.63-1.75-1.63h-.92v3.27h.92Z"/><path class="cls-1" d="m102.46,0l-37.48,21.66v43.52l34.37,19.83,2.74,8.16h.8l2.69-8.17,34.32-19.83V21.66L102.46,0Zm15.42,72.71l-15.42,8.9-15.45-8.92v-8.59s15.45,8.92,15.45,8.92l15.45-8.92-.03,8.6Zm-15.42-4.89l-15.45-8.92v-8.59s15.45,8.92,15.45,8.92l15.42-8.9.03,8.57-15.45,8.92Zm15.42-22.69l-15.42,8.9-15.45-8.92v-8.59l15.45,8.92,15.42-8.9v8.59Zm-15.42-4.89l-12.99-7.5,12.99-7.5,12.99,7.5-12.99,7.5Zm-4.82-17.41l-12.87,7.43-12.87-7.43,12.87-7.43,12.87,7.43Zm22.5,7.42l-12.85-7.42,12.86-7.42,12.85,7.42-12.86,7.42Zm-4.57-17.45l-13.1,7.57-13.1-7.57,13.1-7.57,13.1,7.57Zm-46.11,13.77l13.06,7.54v8.46l-13.06-7.54v-8.46Zm0,13.62l13.06,7.54v8.61l-13.06-7.54v-8.61Zm0,13.77l13.06,7.54v8.63l-13.06-7.54v-8.63Zm65.98,8.63l-13.03,7.52v-8.62h0s13.03-7.53,13.03-7.53v8.63Zm0-13.79l-13.03,7.52v-8.61l13.03-7.52v8.61Zm-13.03-6.25v-8.46l13.03-7.52v8.46l-13.03,7.52Z"/></g></svg>